<svg width="100" height="589" viewBox="0 0 100 589" fill="none" xmlns="http://www.w3.org/2000/svg">
<path d="M23 375.5C22.0835 377.701 21.1827 379.922 20.3005 382.152C17.7503 388.6 15.3544 395.129 13.1762 401.503C11.0635 407.685 9.15565 413.721 7.5105 419.395C5.77573 425.378 4.33308 430.958 3.25036 435.882C1.95111 441.79 1.17017 446.754 1.02477 450.334C1.00826 450.741 0.999942 451.13 1 451.5C1.00029 453.324 1.00049 457.235 1.00062 462.585C1.00071 466.1 1.00078 470.237 1.00082 474.811C1.00085 478.619 1.00086 482.73 1.00087 487.038C1.00087 490.975 1.00086 495.078 1.00085 499.264C1.00083 503.286 1.00081 507.386 1.00078 511.491C1.00075 515.585 1.00072 519.684 1.00068 523.717C1.00064 527.89 1.0006 531.992 1.00055 535.944C1.0005 540.229 1.00045 544.338 1.0004 548.171C1.00034 552.683 1.00028 556.814 1.00023 560.398C1.00014 566.04 1.00007 570.329 1.00003 572.624C1.00001 573.843 1 574.5 1 574.5H6H11.351H23.5775H28H33V567V565.078V552.851V540.624V528.398V516.171V503.945V491.718V479.492V467.265V455.038V445C33 445 32.9657 444.251 32.9043 442.917C32.9042 442.914 32.904 442.911 32.9039 442.908C32.8999 442.822 32.8959 442.733 32.8917 442.643C32.781 440.237 32.5931 436.162 32.3638 431.222C32.3599 431.136 32.3559 431.051 32.3519 430.965C32.1902 427.482 32.0086 423.582 31.8191 419.54C31.8182 419.519 31.8172 419.498 31.8162 419.477C31.637 415.653 31.451 411.704 31.2685 407.864C31.257 407.622 31.2455 407.381 31.2341 407.141C31.0508 403.289 30.8718 399.561 30.7077 396.198C30.6986 396.011 30.6895 395.825 30.6805 395.641C30.4531 390.99 30.2561 387.078 30.1186 384.56C30.1179 384.547 30.1171 384.534 30.1164 384.52C30.0705 383.682 30.0314 383 30 382.5C29.7706 378.844 28.6018 376.441 27.2571 375.196C27.1307 375.079 27.0025 374.972 26.8735 374.875C25.3735 373.75 23.749 374 23 375.5Z" fill="#D9D9D9" fill-opacity="0.44"/>
<path d="M99 451.5C99.0001 451.115 98.9911 450.711 98.9733 450.287C98.8552 447.476 98.3482 443.819 97.5084 439.526C96.9155 436.495 96.1568 433.147 95.252 429.555C94.4843 426.509 93.6115 423.287 92.6456 419.935C91.7716 416.902 90.8213 413.763 89.8038 410.551C88.8502 407.54 87.8375 404.466 86.7731 401.355C85.7523 398.371 84.6838 395.354 83.5743 392.327C82.4914 389.373 81.3694 386.41 80.2143 383.46C79.1685 380.79 78.0956 378.131 77 375.5C76.8795 375.259 76.7363 375.05 76.5746 374.874C74.8275 372.971 70.9205 374.907 70.1087 381.339C70.0618 381.711 70.0252 382.098 70 382.5C69.8837 384.353 69.6604 388.701 69.3857 394.289C69.1973 398.123 68.9848 402.54 68.7662 407.135C68.5649 411.367 68.3584 415.75 68.1608 419.967C67.9449 424.577 67.7396 428.99 67.5634 432.791C67.2295 439.993 67 445 67 445V445.581V457.807V470.034V482.261V494.487V506.714V518.94V531.167V543.393V555.62V567V567.846V574.5H72H72.5731H84.7996H94H97.0262H99C99 574.5 99 573.808 99 572.526C98.9999 570.194 98.9999 565.911 98.9998 560.3C98.9997 556.713 98.9997 552.583 98.9996 548.073C98.9996 544.239 98.9995 540.13 98.9995 535.847C98.9994 531.894 98.9994 527.792 98.9993 523.621C98.9993 519.587 98.9993 515.487 98.9992 511.394C98.9992 507.289 98.9992 503.189 98.9992 499.168C98.9991 494.981 98.9991 490.878 98.9991 486.941C98.9991 482.632 98.9992 478.521 98.9992 474.715C98.9992 470.137 98.9993 465.999 98.9994 462.488C98.9995 457.188 98.9997 453.313 99 451.5Z" fill="#D9D9D9" fill-opacity="0.44"/>
<path d="M8 578.5C7.07162 580.834 6.51738 582.149 5.5 584.5H28.5C27.6124 582.121 27.1948 580.832 26.5 578.5H8Z" fill="#D9D9D9" fill-opacity="0.44"/>
<path d="M6 574.5L3.5 578.5H8H26.5H30.5L28 574.5H23.5775H11.351H6Z" fill="#D9D9D9" fill-opacity="0.44"/>
<path d="M42 569C40.3449 576.165 39 580.5 39 587.5H50H61C61 580.5 59.6551 576.165 58 569H50H42Z" fill="#D9D9D9" fill-opacity="0.44"/>
<path d="M96.5 578.5L94 574.5H84.7996H72.5731H72L69.5 578.5H73.5H92H96.5Z" fill="#D9D9D9" fill-opacity="0.44"/>
<path d="M94.5 584.5C93.4826 582.149 92.9284 580.834 92 578.5H73.5C72.8052 580.832 72.3876 582.121 71.5 584.5H94.5Z" fill="#D9D9D9" fill-opacity="0.44"/>
<path fill-rule="evenodd" clip-rule="evenodd" d="M32.9043 442.917L32.9039 442.908C32.8999 442.822 32.8959 442.733 32.8917 442.643C32.896 442.737 32.9002 442.828 32.9043 442.917Z" fill="#D9D9D9" fill-opacity="0.44"/>
<path d="M50 1C34.9981 0.98828 23 54 23 70V375.5C23.749 374 25.3735 373.75 26.8735 374.875C27.0025 374.972 27.1307 375.079 27.2571 375.196C28.6018 376.441 29.7706 378.844 30 382.5C30.0314 383 30.0705 383.682 30.1164 384.52L30.1186 384.56C30.2561 387.078 30.4531 390.99 30.6805 395.641L30.7077 396.198C30.8718 399.561 31.0508 403.289 31.2341 407.141L31.2685 407.864C31.451 411.704 31.637 415.653 31.8162 419.477L31.8191 419.54C32.0086 423.582 32.1902 427.482 32.3519 430.965L32.3638 431.222C32.5931 436.162 32.781 440.237 32.8917 442.643L32.9039 442.908L32.9043 442.917L33 445V455.038V467.265V479.492V491.718V503.945V516.171V528.398V540.624V552.851V565.078V567C36 569 39 569 42 569H50H58C61 569 64 569 67 567V555.62V543.393V531.167V518.94V506.714V494.487V482.261V470.034V457.807V445.581V445C67 445 67.2295 439.993 67.5634 432.791C67.7396 428.99 67.9449 424.577 68.1608 419.967C68.3584 415.75 68.5649 411.367 68.7662 407.135C68.9848 402.54 69.1973 398.123 69.3857 394.289C69.6604 388.701 69.8837 384.353 70 382.5C70.0252 382.098 70.0618 381.711 70.1087 381.339C70.9205 374.907 74.8275 372.971 76.5746 374.874C76.7363 375.05 76.8795 375.259 77 375.5V70C77 54 65.0019 0.98828 50 1Z" fill="#D9D9D9" fill-opacity="0.44"/>
<path d="M23 70C23 54 34.9981 0.98828 50 1C65.0019 0.98828 77 54 77 70V375.5M23 70C23 86 23 375.5 23 375.5M23 70V375.5M23 375.5C23.749 374 25.3735 373.75 26.8735 374.875C27.0025 374.972 27.1307 375.079 27.2571 375.196M23 375.5C22.0835 377.701 21.1827 379.922 20.3005 382.152M33 445C33 445 32.9657 444.251 32.9043 442.917M33 445V455.038M33 445L32.9043 442.917M6 574.5H1C1 574.5 1.00001 573.843 1.00003 572.624M6 574.5L3.5 578.5H8M6 574.5H11.351M28 574.5H33V567M28 574.5L30.5 578.5H26.5M28 574.5H23.5775M8 578.5C7.07162 580.834 6.51738 582.149 5.5 584.5H28.5C27.6124 582.121 27.1948 580.832 26.5 578.5M8 578.5H26.5M33 567C36 569 39 569 42 569M33 567V565.078M42 569C40.3449 576.165 39 580.5 39 587.5M42 569H50H58M39 587.5C39.4 587.5 46.5 587.5 50 587.5M39 587.5H50M50 587.5H61C61 580.5 59.6551 576.165 58 569M77 375.5C76.8795 375.259 76.7363 375.05 76.5746 374.874M77 375.5C78.0956 378.131 79.1685 380.79 80.2143 383.46M94 574.5L96.5 578.5H92M94 574.5H97.0262M94 574.5H84.7996M72 574.5H67V567.846M72 574.5L69.5 578.5H73.5M72 574.5H72.5731M92 578.5C92.9284 580.834 93.4826 582.149 94.5 584.5H71.5C72.3876 582.121 72.8052 580.832 73.5 578.5M92 578.5H73.5M67 567C64 569 61 569 58 569M67 567V567.846M67 567V555.62M67 457.807V470.034M67 457.807V445.581M67 457.807L95.252 429.555M97.0262 574.5H99C99 574.5 99 573.808 99 572.526M97.0262 574.5L99 572.526M99 572.526C98.9999 570.194 98.9999 565.911 98.9998 560.3M98.9998 560.3C98.9997 556.713 98.9997 552.583 98.9996 548.073M98.9998 560.3L84.7996 574.5M98.9996 548.073C98.9996 544.239 98.9995 540.13 98.9995 535.847M98.9996 548.073L72.5731 574.5M98.9995 535.847L67 567.846M98.9995 535.847C98.9994 531.894 98.9994 527.792 98.9993 523.621M84.7996 574.5H72.5731M67 555.62V543.393M67 555.62L98.9993 523.621M67 543.393V531.167M67 543.393L98.9992 511.394M67 531.167V518.94M67 531.167L98.9992 499.168M67 518.94V506.714M67 518.94L98.9991 486.941M67 506.714V494.487M67 506.714L98.9992 474.715M67 494.487V482.261M67 494.487L98.9994 462.488M67 482.261V470.034M67 482.261L98.9733 450.287M67 470.034L97.5084 439.526M67 445.581V445C67 445 67.2295 439.993 67.5634 432.791M67 445.581L92.6456 419.935M67.5634 432.791C67.7396 428.99 67.9449 424.577 68.1608 419.967M67.5634 432.791L89.8038 410.551M68.1608 419.967C68.3584 415.75 68.5649 411.367 68.7662 407.135M68.1608 419.967L86.7731 401.355M68.7662 407.135C68.9848 402.54 69.1973 398.123 69.3857 394.289M68.7662 407.135L83.5743 392.327M69.3857 394.289C69.6604 388.701 69.8837 384.353 70 382.5C70.0252 382.098 70.0618 381.711 70.1087 381.339M69.3857 394.289L80.2143 383.46M70.1087 381.339C70.9205 374.907 74.8275 372.971 76.5746 374.874M70.1087 381.339L76.5746 374.874M80.2143 383.46C81.3694 386.41 82.4914 389.373 83.5743 392.327M83.5743 392.327C84.6838 395.354 85.7523 398.371 86.7731 401.355M86.7731 401.355C87.8375 404.466 88.8502 407.54 89.8038 410.551M89.8038 410.551C90.8213 413.763 91.7716 416.902 92.6456 419.935M92.6456 419.935C93.6115 423.287 94.4843 426.509 95.252 429.555M95.252 429.555C96.1568 433.147 96.9155 436.495 97.5084 439.526M97.5084 439.526C98.3482 443.819 98.8552 447.476 98.9733 450.287M98.9733 450.287C98.9911 450.711 99.0001 451.115 99 451.5C98.9997 453.313 98.9995 457.188 98.9994 462.488M98.9994 462.488C98.9993 465.999 98.9992 470.137 98.9992 474.715M98.9992 474.715C98.9992 478.521 98.9991 482.632 98.9991 486.941M98.9992 499.168C98.9991 494.981 98.9991 490.878 98.9991 486.941M98.9992 499.168C98.9992 503.189 98.9992 507.289 98.9992 511.394M98.9992 511.394C98.9993 515.487 98.9993 519.587 98.9993 523.621M32.9043 442.917L32.9039 442.908M32.9043 442.917C32.9002 442.828 32.896 442.737 32.8917 442.643M32.9043 442.917C32.9042 442.914 32.904 442.911 32.9039 442.908M32.9039 442.908C32.8999 442.822 32.8959 442.733 32.8917 442.643M32.9039 442.908L1.00082 474.811M32.9039 442.908L32.8917 442.643M32.8917 442.643C32.781 440.237 32.5931 436.162 32.3638 431.222M32.3638 431.222C32.3599 431.136 32.3559 431.051 32.3519 430.965M32.3638 431.222L1.00062 462.585M32.3638 431.222L32.3519 430.965M32.3519 430.965C32.1902 427.482 32.0086 423.582 31.8191 419.54M31.8191 419.54C31.8182 419.519 31.8172 419.498 31.8162 419.477M31.8191 419.54L1.02477 450.334M31.8191 419.54L31.8162 419.477M31.8162 419.477C31.637 415.653 31.451 411.704 31.2685 407.864M31.2685 407.864C31.257 407.622 31.2455 407.381 31.2341 407.141M31.2685 407.864L3.25036 435.882M31.2685 407.864L31.2341 407.141M31.2341 407.141C31.0508 403.289 30.8718 399.561 30.7077 396.198M30.7077 396.198C30.6986 396.011 30.6895 395.825 30.6805 395.641M30.7077 396.198L7.5105 419.395M30.7077 396.198L30.6805 395.641M30.6805 395.641C30.4531 390.99 30.2561 387.078 30.1186 384.56M30.1186 384.56C30.1179 384.547 30.1171 384.534 30.1164 384.52M30.1186 384.56L13.1762 401.503M30.1186 384.56L30.1164 384.52M30.1164 384.52C30.0705 383.682 30.0314 383 30 382.5C29.7706 378.844 28.6018 376.441 27.2571 375.196M27.2571 375.196L20.3005 382.152M23.5775 574.5H11.351M23.5775 574.5L33 565.078M11.351 574.5L33 552.851M1.00003 572.624C1.00007 570.329 1.00014 566.04 1.00023 560.398M1.00003 572.624L33 540.624M1.00023 560.398C1.00028 556.814 1.00034 552.683 1.0004 548.171M1.00023 560.398L33 528.398M1.0004 548.171C1.00045 544.338 1.0005 540.229 1.00055 535.944M1.0004 548.171L33 516.171M1.00055 535.944C1.0006 531.992 1.00064 527.89 1.00068 523.717M1.00055 535.944L33 503.945M1.00068 523.717C1.00072 519.684 1.00075 515.585 1.00078 511.491M1.00068 523.717L33 491.718M1.00078 511.491C1.00081 507.386 1.00083 503.286 1.00085 499.264M1.00078 511.491L33 479.492M1.00085 499.264C1.00086 495.078 1.00087 490.975 1.00087 487.038M1.00085 499.264L33 467.265M1.00087 487.038C1.00086 482.73 1.00085 478.619 1.00082 474.811M1.00087 487.038L33 455.038M1.00082 474.811C1.00078 470.237 1.00071 466.1 1.00062 462.585M33 479.492V491.718M33 479.492V467.265M33 491.718V503.945M33 503.945V516.171M33 516.171V528.398M33 528.398V540.624M33 540.624V552.851M33 552.851V565.078M33 467.265V455.038M1.00062 462.585C1.00049 457.235 1.00029 453.324 1 451.5C0.999942 451.13 1.00826 450.741 1.02477 450.334M3.25036 435.882C4.33308 430.958 5.77573 425.378 7.5105 419.395M3.25036 435.882C1.95111 441.79 1.17017 446.754 1.02477 450.334M7.5105 419.395C9.15565 413.721 11.0635 407.685 13.1762 401.503M13.1762 401.503C15.3544 395.129 17.7503 388.6 20.3005 382.152" stroke="white" stroke-width="2"/>
<path d="M23 310.668L76.9993 256.669M23.0001 298.441L73.9413 247.5M23.0002 286.215L61.7148 247.5M23.0002 273.988L49.4882 247.5M76.9993 268.895L23.4056 322.489M35.6318 322.489L76.999 281.122M76.999 293.348L47.8584 322.489M76.999 305.575L60.0849 322.489M76.999 317.801L72.3115 322.489M23.0002 261.764L37.2642 247.5M23.0002 249.546L25.0462 247.5" stroke="white" stroke-width="2"/>
<path d="M75.9993 62.3948L23 115.394M34.6318 115.989L77 74.0898M34.6318 115.989H46.8584M34.6318 115.989H23M77 86.0898L46.8584 115.989M77 98.0898L59.0849 115.989M77 110.59L71.3115 115.989M71.3115 115.989H59.0849M71.3115 115.989H75.999M59.0849 115.989H46.8584M29 35.9844L58.5 6.48437M35.668 17.0898L51.5 1.25781M63.1346 14.0898L25.171 52.0898M66.8571 22.5898L23.3968 66.0898M23 78.7144L69.6246 32.0898M23 90.9401L72.5 41.3949M23 103.168L74.5777 51.5898" stroke="white" stroke-width="2"/>
<line x1="23" y1="195.5" x2="76" y2="195.5" stroke="white"/>
<line x1="23" y1="202.5" x2="76" y2="202.5" stroke="white"/>
<line x1="23" y1="217.5" x2="76" y2="217.5" stroke="white"/>
<line x1="23" y1="221.5" x2="76" y2="221.5" stroke="white"/>
<line x1="23" y1="247.5" x2="76" y2="247.5" stroke="white" stroke-width="2"/>
<line x1="23" y1="322.5" x2="76" y2="322.5" stroke="white" stroke-width="2"/>
<line x1="32" y1="522.5" x2="67" y2="522.5" stroke="white"/>
</svg>
